<?xml version="1.0" standalone="no"?>
<!DOCTYPE svg PUBLIC "-//W3C//DTD SVG 1.1//EN" "http://www.w3.org/Graphics/SVG/1.1/DTD/svg11.dtd">
<svg width="123mm" height="152mm" viewBox="-123 -152 123 152" xmlns="http://www.w3.org/2000/svg" version="1.1">
<title>OpenSCAD Model</title>
<path d="
M -123,-0 L -109.417,-0 L -109.417,-8 L -99.8333,-8 L -99.8333,-0 L -90.25,-0
 L -90.25,-8 L -80.6667,-8 L -80.6667,-0 L -71.0833,-0 L -71.0833,-8 L -61.5,-8
 L -61.5,-0 L -51.9167,-0 L -51.9167,-8 L -42.3333,-8 L -42.3333,-0 L -32.75,-0
 L -32.75,-8 L -23.1667,-8 L -23.1667,-0 L -13.5833,-0 L -13.5833,-8 L -8,-8
 L -8,-16 L 0,-16 L 0,-28 L -8,-28 L -8,-40 L 0,-40
 L 0,-52 L -8,-52 L -8,-64 L 0,-64 L 0,-76 L -8,-76
 L -8,-88 L 0,-88 L 0,-100 L -8,-100 L -8,-112 L 0,-112
 L 0,-124 L -8,-124 L -8,-136 L 0,-136 L 0,-144 L -13.5833,-144
 L -13.5833,-152 L -23.1667,-152 L -23.1667,-144 L -32.75,-144 L -32.75,-152 L -42.3333,-152
 L -42.3333,-144 L -51.9167,-144 L -51.9167,-152 L -61.5,-152 L -61.5,-144 L -71.0833,-144
 L -71.0833,-152 L -80.6667,-152 L -80.6667,-144 L -90.25,-144 L -90.25,-152 L -99.8333,-152
 L -99.8333,-144 L -109.417,-144 L -109.417,-152 L -123,-152 L -123,-136 L -115,-136
 L -115,-124 L -123,-124 L -123,-112 L -115,-112 L -115,-100 L -123,-100
 L -123,-88 L -115,-88 L -115,-76 L -123,-76 L -123,-64 L -115,-64
 L -115,-52 L -123,-52 L -123,-40 L -115,-40 L -115,-28 L -123,-28
 L -123,-16 L -115,-16 L -115,-8 L -123,-8 z
" stroke="black" fill="lightgray" stroke-width="0.5"/>
</svg>
