<?xml version="1.0" standalone="no"?>
<!DOCTYPE svg PUBLIC "-//W3C//DTD SVG 1.1//EN" "http://www.w3.org/Graphics/SVG/1.1/DTD/svg11.dtd">
<svg width="129mm" height="157mm" viewBox="-129 -157 129 157" xmlns="http://www.w3.org/2000/svg" version="1.1">
<title>OpenSCAD Model</title>
<path d="
M -129,-0 L -114.917,-0 L -114.917,-8 L -104.833,-8 L -104.833,-0 L -94.75,-0
 L -94.75,-8 L -84.6667,-8 L -84.6667,-0 L -74.5833,-0 L -74.5833,-8 L -64.5,-8
 L -64.5,-0 L -54.4167,-0 L -54.4167,-8 L -44.3333,-8 L -44.3333,-0 L -34.25,-0
 L -34.25,-8 L -24.1667,-8 L -24.1667,-0 L -14.0833,-0 L -14.0833,-8 L -8,-8
 L -8,-16.4167 L 0,-16.4167 L 0,-28.8333 L -8,-28.8333 L -8,-41.25 L 0,-41.25
 L 0,-53.6667 L -8,-53.6667 L -8,-66.0833 L 0,-66.0833 L 0,-78.5 L -8,-78.5
 L -8,-90.9167 L 0,-90.9167 L 0,-103.333 L -8,-103.333 L -8,-115.75 L 0,-115.75
 L 0,-128.167 L -8,-128.167 L -8,-140.583 L 0,-140.583 L 0,-149 L -14.0833,-149
 L -14.0833,-157 L -24.1667,-157 L -24.1667,-149 L -34.25,-149 L -34.25,-157 L -44.3333,-157
 L -44.3333,-149 L -54.4167,-149 L -54.4167,-157 L -64.5,-157 L -64.5,-149 L -74.5833,-149
 L -74.5833,-157 L -84.6667,-157 L -84.6667,-149 L -94.75,-149 L -94.75,-157 L -104.833,-157
 L -104.833,-149 L -114.917,-149 L -114.917,-157 L -129,-157 L -129,-140.583 L -121,-140.583
 L -121,-128.167 L -129,-128.167 L -129,-115.75 L -121,-115.75 L -121,-103.333 L -129,-103.333
 L -129,-90.9167 L -121,-90.9167 L -121,-78.5 L -129,-78.5 L -129,-66.0833 L -121,-66.0833
 L -121,-53.6667 L -129,-53.6667 L -129,-41.25 L -121,-41.25 L -121,-28.8333 L -129,-28.8333
 L -129,-16.4167 L -121,-16.4167 L -121,-8 L -129,-8 z
" stroke="black" fill="lightgray" stroke-width="0.5"/>
</svg>
