<?xml version="1.0" standalone="no"?>
<!DOCTYPE svg PUBLIC "-//W3C//DTD SVG 1.1//EN" "http://www.w3.org/Graphics/SVG/1.1/DTD/svg11.dtd">
<svg width="118mm" height="157mm" viewBox="5 -157 118 157" xmlns="http://www.w3.org/2000/svg" version="1.1">
<title>OpenSCAD Model</title>
<path d="
M 5,-8 L 9,-8 L 9,-0 L 20.7462,-0 L 20.7462,-8 L 32.4923,-8
 L 32.4923,-0 L 44.2385,-0 L 44.2385,-8 L 55.9846,-8 L 55.9846,-0 L 67.7308,-0
 L 67.7308,-8 L 79.4769,-8 L 79.4769,-0 L 91.2231,-0 L 91.2231,-8 L 102.969,-8
 L 102.969,-0 L 114.715,-0 L 114.715,-8 L 122.462,-8 L 122.462,-10 L 112.462,-10
 L 111.167,-10.1704 L 109.962,-10.6699 L 108.926,-11.4645 L 108.131,-12.5 L 107.632,-13.7059 L 107.462,-15
 L 107.462,-26 L 107.632,-27.2941 L 108.131,-28.5 L 108.926,-29.5355 L 109.962,-30.3301 L 111.167,-30.8296
 L 112.462,-31 L 122.462,-31 L 122.462,-68 L 112.462,-68 L 111.167,-68.1704 L 109.962,-68.6699
 L 108.926,-69.4645 L 108.131,-70.5 L 107.632,-71.7059 L 107.462,-73 L 107.462,-84 L 107.632,-85.2941
 L 108.131,-86.5 L 108.926,-87.5355 L 109.962,-88.3301 L 111.167,-88.8296 L 112.462,-89 L 122.462,-89
 L 122.462,-126 L 112.462,-126 L 111.167,-126.17 L 109.962,-126.67 L 108.926,-127.464 L 108.131,-128.5
 L 107.632,-129.706 L 107.462,-131 L 107.462,-142 L 107.632,-143.294 L 108.131,-144.5 L 108.926,-145.536
 L 109.962,-146.33 L 111.167,-146.83 L 112.462,-147 L 122.462,-147 L 122.462,-149 L 114.715,-149
 L 114.715,-157 L 102.969,-157 L 102.969,-149 L 91.2231,-149 L 91.2231,-157 L 79.4769,-157
 L 79.4769,-149 L 67.7308,-149 L 67.7308,-157 L 55.9846,-157 L 55.9846,-149 L 44.2385,-149
 L 44.2385,-157 L 32.4923,-157 L 32.4923,-149 L 20.7462,-149 L 20.7462,-157 L 9,-157
 L 9,-153 L 9,-153 L 9,-140.583 L 5,-140.583 L 5,-128.167 L 9,-128.167
 L 9,-115.75 L 5,-115.75 L 5,-103.333 L 9,-103.333 L 9,-90.9167 L 5,-90.9167
 L 5,-78.5 L 9,-78.5 L 9,-66.0833 L 5,-66.0833 L 5,-53.6667 L 9,-53.6667
 L 9,-41.25 L 5,-41.25 L 5,-28.8333 L 9,-28.8333 L 9,-16.4167 L 5,-16.4167
 z
M 78.9744,-33 L 78.9744,-37 L 88.9744,-37 L 88.9744,-33 z
M 78.9744,-62 L 78.9744,-66 L 88.9744,-66 L 88.9744,-62 z
M 78.9744,-91 L 78.9744,-95 L 88.9744,-95 L 88.9744,-91 z
M 78.9744,-120 L 78.9744,-124 L 88.9744,-124 L 88.9744,-120 z
" stroke="black" fill="lightgray" stroke-width="0.5"/>
</svg>
