<?xml version="1.0" standalone="no"?>
<!DOCTYPE svg PUBLIC "-//W3C//DTD SVG 1.1//EN" "http://www.w3.org/Graphics/SVG/1.1/DTD/svg11.dtd">
<svg width="116mm" height="152mm" viewBox="5 -152 116 152" xmlns="http://www.w3.org/2000/svg" version="1.1">
<title>OpenSCAD Model</title>
<path d="
M 5,-8 L 9,-8 L 9,-0 L 20.5378,-0 L 20.5378,-8 L 32.0757,-8
 L 32.0757,-0 L 43.6135,-0 L 43.6135,-8 L 55.1514,-8 L 55.1514,-0 L 66.6892,-0
 L 66.6892,-8 L 78.227,-8 L 78.227,-0 L 89.7649,-0 L 89.7649,-8 L 101.303,-8
 L 101.303,-0 L 112.841,-0 L 112.841,-8 L 120.378,-8 L 120.378,-10 L 110.378,-10
 L 109.084,-10.1704 L 107.878,-10.6699 L 106.843,-11.4645 L 106.048,-12.5 L 105.549,-13.7059 L 105.378,-15
 L 105.378,-25 L 105.549,-26.2941 L 106.048,-27.5 L 106.843,-28.5355 L 107.878,-29.3301 L 109.084,-29.8296
 L 110.378,-30 L 120.378,-30 L 120.378,-66 L 110.378,-66 L 109.084,-66.1704 L 107.878,-66.6699
 L 106.843,-67.4645 L 106.048,-68.5 L 105.549,-69.7059 L 105.378,-71 L 105.378,-81 L 105.549,-82.2941
 L 106.048,-83.5 L 106.843,-84.5355 L 107.878,-85.3301 L 109.084,-85.8296 L 110.378,-86 L 120.378,-86
 L 120.378,-122 L 110.378,-122 L 109.084,-122.17 L 107.878,-122.67 L 106.843,-123.464 L 106.048,-124.5
 L 105.549,-125.706 L 105.378,-127 L 105.378,-137 L 105.549,-138.294 L 106.048,-139.5 L 106.843,-140.536
 L 107.878,-141.33 L 109.084,-141.83 L 110.378,-142 L 120.378,-142 L 120.378,-144 L 112.841,-144
 L 112.841,-152 L 101.303,-152 L 101.303,-144 L 89.7649,-144 L 89.7649,-152 L 78.227,-152
 L 78.227,-144 L 66.6892,-144 L 66.6892,-152 L 55.1514,-152 L 55.1514,-144 L 43.6135,-144
 L 43.6135,-152 L 32.0757,-152 L 32.0757,-144 L 20.5378,-144 L 20.5378,-152 L 9,-152
 L 9,-148 L 9,-148 L 9,-136 L 5,-136 L 5,-124 L 9,-124
 L 9,-112 L 5,-112 L 5,-100 L 9,-100 L 9,-88 L 5,-88
 L 5,-76 L 9,-76 L 9,-64 L 5,-64 L 5,-52 L 9,-52
 L 9,-40 L 5,-40 L 5,-28 L 9,-28 L 9,-16 L 5,-16
 z
M 77.5856,-32 L 77.5856,-36 L 87.5856,-36 L 87.5856,-32 z
M 77.5856,-60 L 77.5856,-64 L 87.5856,-64 L 87.5856,-60 z
M 77.5856,-88 L 77.5856,-92 L 87.5856,-92 L 87.5856,-88 z
M 77.5856,-116 L 77.5856,-120 L 87.5856,-120 L 87.5856,-116 z
" stroke="black" fill="lightgray" stroke-width="0.5"/>
</svg>
