<?xml version="1.0" standalone="no"?>
<!DOCTYPE svg PUBLIC "-//W3C//DTD SVG 1.1//EN" "http://www.w3.org/Graphics/SVG/1.1/DTD/svg11.dtd">
<svg width="118mm" height="157mm" viewBox="-252 -157 118 157" xmlns="http://www.w3.org/2000/svg" version="1.1">
<title>OpenSCAD Model</title>
<path d="
M -251.462,-8 L -243.715,-8 L -243.715,-0 L -231.969,-0 L -231.969,-8 L -220.223,-8
 L -220.223,-0 L -208.477,-0 L -208.477,-8 L -196.731,-8 L -196.731,-0 L -184.985,-0
 L -184.985,-8 L -173.238,-8 L -173.238,-0 L -161.492,-0 L -161.492,-8 L -149.746,-8
 L -149.746,-0 L -138,-0 L -138,-8 L -134,-8 L -134,-16.4167 L -138,-16.4167
 L -138,-28.8333 L -134,-28.8333 L -134,-41.25 L -138,-41.25 L -138,-53.6667 L -134,-53.6667
 L -134,-66.0833 L -138,-66.0833 L -138,-78.5 L -134,-78.5 L -134,-90.9167 L -138,-90.9167
 L -138,-103.333 L -134,-103.333 L -134,-115.75 L -138,-115.75 L -138,-128.167 L -134,-128.167
 L -134,-140.583 L -138,-140.583 L -138,-153 L -138,-153 L -138,-157 L -149.746,-157
 L -149.746,-149 L -161.492,-149 L -161.492,-157 L -173.238,-157 L -173.238,-149 L -184.985,-149
 L -184.985,-157 L -196.731,-157 L -196.731,-149 L -208.477,-149 L -208.477,-157 L -220.223,-157
 L -220.223,-149 L -231.969,-149 L -231.969,-157 L -243.715,-157 L -243.715,-149 L -251.462,-149
 z
" stroke="black" fill="lightgray" stroke-width="0.5"/>
</svg>
