<?xml version="1.0" standalone="no"?>
<!DOCTYPE svg PUBLIC "-//W3C//DTD SVG 1.1//EN" "http://www.w3.org/Graphics/SVG/1.1/DTD/svg11.dtd">
<svg width="116mm" height="152mm" viewBox="-244 -152 116 152" xmlns="http://www.w3.org/2000/svg" version="1.1">
<title>OpenSCAD Model</title>
<path d="
M -243.378,-8 L -235.841,-8 L -235.841,-0 L -224.303,-0 L -224.303,-8 L -212.765,-8
 L -212.765,-0 L -201.227,-0 L -201.227,-8 L -189.689,-8 L -189.689,-0 L -178.151,-0
 L -178.151,-8 L -166.614,-8 L -166.614,-0 L -155.076,-0 L -155.076,-8 L -143.538,-8
 L -143.538,-0 L -132,-0 L -132,-8 L -128,-8 L -128,-16 L -132,-16
 L -132,-28 L -128,-28 L -128,-40 L -132,-40 L -132,-52 L -128,-52
 L -128,-64 L -132,-64 L -132,-76 L -128,-76 L -128,-88 L -132,-88
 L -132,-100 L -128,-100 L -128,-112 L -132,-112 L -132,-124 L -128,-124
 L -128,-136 L -132,-136 L -132,-148 L -132,-148 L -132,-152 L -143.538,-152
 L -143.538,-144 L -155.076,-144 L -155.076,-152 L -166.614,-152 L -166.614,-144 L -178.151,-144
 L -178.151,-152 L -189.689,-152 L -189.689,-144 L -201.227,-144 L -201.227,-152 L -212.765,-152
 L -212.765,-144 L -224.303,-144 L -224.303,-152 L -235.841,-152 L -235.841,-144 L -243.378,-144
 z
M -239.89,-13 L -239.843,-13.376 L -239.703,-13.7284 L -239.481,-14.035 L -239.189,-14.2766 L -238.846,-14.4379
 L -238.473,-14.5089 L -238.095,-14.4851 L -237.735,-14.368 L -237.415,-14.165 L -237.155,-13.8887 L -236.973,-13.5566
 L -236.878,-13.1895 L -236.878,-12.8105 L -236.973,-12.4434 L -237.155,-12.1113 L -237.415,-11.835 L -237.735,-11.632
 L -238.095,-11.5149 L -238.473,-11.4911 L -238.846,-11.5621 L -239.189,-11.7234 L -239.481,-11.965 L -239.703,-12.2716
 L -239.843,-12.624 z
M -239.89,-27 L -239.843,-27.376 L -239.703,-27.7284 L -239.481,-28.035 L -239.189,-28.2766 L -238.846,-28.4379
 L -238.473,-28.5089 L -238.095,-28.4851 L -237.735,-28.368 L -237.415,-28.165 L -237.155,-27.8887 L -236.973,-27.5566
 L -236.878,-27.1895 L -236.878,-26.8105 L -236.973,-26.4434 L -237.155,-26.1113 L -237.415,-25.835 L -237.735,-25.632
 L -238.095,-25.5149 L -238.473,-25.4911 L -238.846,-25.5621 L -239.189,-25.7234 L -239.481,-25.965 L -239.703,-26.2716
 L -239.843,-26.624 z
M -239.89,-69 L -239.843,-69.376 L -239.703,-69.7284 L -239.481,-70.035 L -239.189,-70.2766 L -238.846,-70.4379
 L -238.473,-70.5089 L -238.095,-70.4851 L -237.735,-70.368 L -237.415,-70.165 L -237.155,-69.8887 L -236.973,-69.5566
 L -236.878,-69.1895 L -236.878,-68.8105 L -236.973,-68.4434 L -237.155,-68.1113 L -237.415,-67.835 L -237.735,-67.632
 L -238.095,-67.5149 L -238.473,-67.4911 L -238.846,-67.5621 L -239.189,-67.7234 L -239.481,-67.965 L -239.703,-68.2716
 L -239.843,-68.624 z
M -239.89,-83 L -239.843,-83.376 L -239.703,-83.7284 L -239.481,-84.035 L -239.189,-84.2766 L -238.846,-84.4379
 L -238.473,-84.5089 L -238.095,-84.4851 L -237.735,-84.368 L -237.415,-84.165 L -237.155,-83.8887 L -236.973,-83.5566
 L -236.878,-83.1895 L -236.878,-82.8105 L -236.973,-82.4434 L -237.155,-82.1113 L -237.415,-81.835 L -237.735,-81.632
 L -238.095,-81.5149 L -238.473,-81.4911 L -238.846,-81.5621 L -239.189,-81.7234 L -239.481,-81.965 L -239.703,-82.2716
 L -239.843,-82.624 z
M -239.89,-125 L -239.843,-125.376 L -239.703,-125.728 L -239.481,-126.035 L -239.189,-126.277 L -238.846,-126.438
 L -238.473,-126.509 L -238.095,-126.485 L -237.735,-126.368 L -237.415,-126.165 L -237.155,-125.889 L -236.973,-125.557
 L -236.878,-125.189 L -236.878,-124.811 L -236.973,-124.443 L -237.155,-124.111 L -237.415,-123.835 L -237.735,-123.632
 L -238.095,-123.515 L -238.473,-123.491 L -238.846,-123.562 L -239.189,-123.723 L -239.481,-123.965 L -239.703,-124.272
 L -239.843,-124.624 z
M -239.89,-139 L -239.843,-139.376 L -239.703,-139.728 L -239.481,-140.035 L -239.189,-140.277 L -238.846,-140.438
 L -238.473,-140.509 L -238.095,-140.485 L -237.735,-140.368 L -237.415,-140.165 L -237.155,-139.889 L -236.973,-139.557
 L -236.878,-139.189 L -236.878,-138.811 L -236.973,-138.443 L -237.155,-138.111 L -237.415,-137.835 L -237.735,-137.632
 L -238.095,-137.515 L -238.473,-137.491 L -238.846,-137.562 L -239.189,-137.723 L -239.481,-137.965 L -239.703,-138.272
 L -239.843,-138.624 z
" stroke="black" fill="lightgray" stroke-width="0.5"/>
</svg>
