<?xml version="1.0" standalone="no"?>
<!DOCTYPE svg PUBLIC "-//W3C//DTD SVG 1.1//EN" "http://www.w3.org/Graphics/SVG/1.1/DTD/svg11.dtd">
<svg width="123mm" height="116mm" viewBox="-123 125 123 116" xmlns="http://www.w3.org/2000/svg" version="1.1">
<title>OpenSCAD Model</title>
<path d="
M -123,225.462 L -115,225.462 L -115,237 L -109.833,237 L -109.833,241 L -100.25,241
 L -100.25,237 L -90.6667,237 L -90.6667,241 L -81.0833,241 L -81.0833,237 L -71.5,237
 L -71.5,241 L -61.9167,241 L -61.9167,237 L -52.3333,237 L -52.3333,241 L -42.75,241
 L -42.75,237 L -33.1667,237 L -33.1667,241 L -23.5833,241 L -23.5833,237 L -14,237
 L -14,241 L 0,241 L 0,237 L -8,237 L -8,225.462 L 0,225.462
 L 0,213.924 L -8,213.924 L -8,202.386 L 0,202.386 L 0,190.849 L -8,190.849
 L -8,179.311 L 0,179.311 L 0,167.773 L -8,167.773 L -8,156.235 L 0,156.235
 L 0,144.697 L -8,144.697 L -8,133.159 L 0,133.159 L 0,125.622 L -123,125.622
 L -123,133.159 L -115,133.159 L -115,144.697 L -123,144.697 L -123,156.235 L -115,156.235
 L -115,167.773 L -123,167.773 L -123,179.311 L -115,179.311 L -115,190.849 L -123,190.849
 L -123,202.386 L -115,202.386 L -115,213.924 L -123,213.924 z
M -98,166.422 L -98,162.422 L -90,162.422 L -90,166.422 z
M -98,146.422 L -98,142.422 L -90,142.422 L -90,146.422 z
M -78,166.422 L -78,162.422 L -70,162.422 L -70,166.422 z
M -78,146.422 L -78,142.422 L -70,142.422 L -70,146.422 z
M -64,168.422 L -64,160.422 L -60,160.422 L -60,168.422 z
M -64,148.422 L -64,140.422 L -60,140.422 L -60,148.422 z
M -39,168.422 L -39,160.422 L -35,160.422 L -35,168.422 z
M -39,148.422 L -39,140.422 L -35,140.422 L -35,148.422 z
" stroke="black" fill="lightgray" stroke-width="0.5"/>
</svg>
