<?xml version="1.0" standalone="no"?>
<!DOCTYPE svg PUBLIC "-//W3C//DTD SVG 1.1//EN" "http://www.w3.org/Graphics/SVG/1.1/DTD/svg11.dtd">
<svg width="129mm" height="118mm" viewBox="-129 5 129 118" xmlns="http://www.w3.org/2000/svg" version="1.1">
<title>OpenSCAD Model</title>
<path d="
M -129,122.462 L 0,122.462 L 0,114.715 L -8,114.715 L -8,102.969 L 0,102.969
 L 0,91.2231 L -8,91.2231 L -8,79.4769 L 0,79.4769 L 0,67.7308 L -8,67.7308
 L -8,55.9846 L 0,55.9846 L 0,44.2385 L -8,44.2385 L -8,32.4923 L 0,32.4923
 L 0,20.7462 L -8,20.7462 L -8,9 L 0,9 L 0,5 L -14,5
 L -14,9 L -24.0833,9 L -24.0833,5 L -34.1667,5 L -34.1667,9 L -44.25,9
 L -44.25,5 L -54.3333,5 L -54.3333,9 L -64.4167,9 L -64.4167,5 L -74.5,5
 L -74.5,9 L -84.5833,9 L -84.5833,5 L -94.6667,5 L -94.6667,9 L -104.75,9
 L -104.75,5 L -114.833,5 L -114.833,9 L -121,9 L -121,20.7462 L -129,20.7462
 L -129,32.4923 L -121,32.4923 L -121,44.2385 L -129,44.2385 L -129,55.9846 L -121,55.9846
 L -121,67.7308 L -129,67.7308 L -129,79.4769 L -121,79.4769 L -121,91.2231 L -129,91.2231
 L -129,102.969 L -121,102.969 L -121,114.715 L -129,114.715 z
M -87.9471,35.9214 L -86.5111,32.188 L -77.1777,35.7778 L -78.6136,39.5112 z
M -86,101.462 L -86,91.4615 L -82,91.4615 L -82,101.462 z
M -86,70 L -86,60 L -82,60 L -82,70 z
M -51.5248,49.9299 L -50.0889,46.1966 L -40.7555,49.7864 L -42.1914,53.5197 z
M -47,101.462 L -47,91.4615 L -43,91.4615 L -43,101.462 z
M -47,85 L -47,75 L -43,75 L -43,85 z
" stroke="black" fill="lightgray" stroke-width="0.5"/>
</svg>
