<?xml version="1.0" standalone="no"?>
<!DOCTYPE svg PUBLIC "-//W3C//DTD SVG 1.1//EN" "http://www.w3.org/Graphics/SVG/1.1/DTD/svg11.dtd">
<svg width="129mm" height="118mm" viewBox="-129 135 129 118" xmlns="http://www.w3.org/2000/svg" version="1.1">
<title>OpenSCAD Model</title>
<path d="
M -129,237.254 L -121,237.254 L -121,249 L -114.833,249 L -114.833,253 L -104.75,253
 L -104.75,249 L -94.6667,249 L -94.6667,253 L -84.5833,253 L -84.5833,249 L -74.5,249
 L -74.5,253 L -64.4167,253 L -64.4167,249 L -54.3333,249 L -54.3333,253 L -44.25,253
 L -44.25,249 L -34.1667,249 L -34.1667,253 L -24.0833,253 L -24.0833,249 L -14,249
 L -14,253 L 0,253 L 0,249 L -8,249 L -8,237.254 L 0,237.254
 L 0,225.508 L -8,225.508 L -8,213.762 L 0,213.762 L 0,202.015 L -8,202.015
 L -8,190.269 L 0,190.269 L 0,178.523 L -8,178.523 L -8,166.777 L 0,166.777
 L 0,155.031 L -8,155.031 L -8,143.285 L 0,143.285 L 0,135.538 L -129,135.538
 L -129,143.285 L -121,143.285 L -121,155.031 L -129,155.031 L -129,166.777 L -121,166.777
 L -121,178.523 L -129,178.523 L -129,190.269 L -121,190.269 L -121,202.015 L -129,202.015
 L -129,213.762 L -121,213.762 L -121,225.508 L -129,225.508 z
M -102,155.272 L -102,151.272 L -94,151.272 L -94,155.272 z
M -82,155.272 L -82,151.272 L -74,151.272 L -74,155.272 z
M -68,177.272 L -68,169.272 L -64,169.272 L -64,177.272 z
M -68,157.272 L -68,149.272 L -64,149.272 L -64,157.272 z
M -43,177.272 L -43,169.272 L -39,169.272 L -39,177.272 z
M -43,157.272 L -43,149.272 L -39,149.272 L -39,157.272 z
" stroke="black" fill="lightgray" stroke-width="0.5"/>
</svg>
