<?xml version="1.0" standalone="no"?>
<!DOCTYPE svg PUBLIC "-//W3C//DTD SVG 1.1//EN" "http://www.w3.org/Graphics/SVG/1.1/DTD/svg11.dtd">
<svg width="123mm" height="116mm" viewBox="-123 5 123 116" xmlns="http://www.w3.org/2000/svg" version="1.1">
<title>OpenSCAD Model</title>
<path d="
M -123,120.378 L 0,120.378 L 0,112.841 L -8,112.841 L -8,101.303 L 0,101.303
 L 0,89.7649 L -8,89.7649 L -8,78.227 L 0,78.227 L 0,66.6892 L -8,66.6892
 L -8,55.1514 L 0,55.1514 L 0,43.6135 L -8,43.6135 L -8,32.0757 L 0,32.0757
 L 0,20.5378 L -8,20.5378 L -8,9 L 0,9 L 0,5 L -14,5
 L -14,9 L -23.5833,9 L -23.5833,5 L -33.1667,5 L -33.1667,9 L -42.75,9
 L -42.75,5 L -52.3333,5 L -52.3333,9 L -61.9167,9 L -61.9167,5 L -71.5,5
 L -71.5,9 L -81.0833,9 L -81.0833,5 L -90.6667,5 L -90.6667,9 L -100.25,9
 L -100.25,5 L -109.833,5 L -109.833,9 L -115,9 L -115,20.5378 L -123,20.5378
 L -123,32.0757 L -115,32.0757 L -115,43.6135 L -123,43.6135 L -123,55.1514 L -115,55.1514
 L -115,66.6892 L -123,66.6892 L -123,78.227 L -115,78.227 L -115,89.7649 L -123,89.7649
 L -123,101.303 L -115,101.303 L -115,112.841 L -123,112.841 z
M -83.9985,33.9114 L -82.4957,30.2044 L -73.2283,33.9615 L -74.7312,37.6684 z
M -82,99.3784 L -82,89.3784 L -78,89.3784 L -78,99.3784 z
M -82,68 L -82,58 L -78,58 L -78,68 z
M -49.5675,47.8699 L -48.0647,44.163 L -38.7973,47.92 L -40.3001,51.627 z
M -45,99.3784 L -45,89.3784 L -41,89.3784 L -41,99.3784 z
M -45,83 L -45,73 L -41,73 L -41,83 z
" stroke="black" fill="lightgray" stroke-width="0.5"/>
</svg>
