<?xml version="1.0" encoding="UTF-8" standalone="no"?>
<svg
   width="160mm"
   height="152mm"
   viewBox="0 -152 160 152"
   version="1.1"
   id="svg1"
   sodipodi:docname="other-cover.svg"
   xml:space="preserve"
   inkscape:version="1.3.2 (091e20ef0f, 2023-11-25)"
   xmlns:inkscape="http://www.inkscape.org/namespaces/inkscape"
   xmlns:sodipodi="http://sodipodi.sourceforge.net/DTD/sodipodi-0.dtd"
   xmlns="http://www.w3.org/2000/svg"
   xmlns:svg="http://www.w3.org/2000/svg"><defs
     id="defs1" /><sodipodi:namedview
     id="namedview1"
     pagecolor="#ffffff"
     bordercolor="#000000"
     borderopacity="0.25"
     inkscape:showpageshadow="2"
     inkscape:pageopacity="0.0"
     inkscape:pagecheckerboard="0"
     inkscape:deskcolor="#d1d1d1"
     inkscape:document-units="mm"
     inkscape:zoom="2.0975192"
     inkscape:cx="302.26184"
     inkscape:cy="287.24409"
     inkscape:window-width="2256"
     inkscape:window-height="1435"
     inkscape:window-x="0"
     inkscape:window-y="0"
     inkscape:window-maximized="1"
     inkscape:current-layer="svg1" /><title
     id="title1">OpenSCAD Model</title><path
     d=" M 0,-4 L 4.33333,-4 L 4.33333,-0 L 8.66667,-0 L 8.66667,-4 L 13,-4  L 13,-0 L 17.3333,-0 L 17.3333,-4 L 21.6667,-4 L 21.6667,-0 L 26,-0  L 26,-4 L 30.3333,-4 L 30.3333,-0 L 34.6667,-0 L 34.6667,-4 L 39,-4  L 39,-0 L 43.3333,-0 L 43.3333,-4 L 47.6667,-4 L 47.6667,-0 L 80.2743,-0  L 80.2743,-4 L 86.8577,-4 L 86.8577,-0 L 93.441,-0 L 93.441,-4 L 100.024,-4  L 100.024,-0 L 106.608,-0 L 106.608,-4 L 113.191,-4 L 113.191,-0 L 119.774,-0  L 119.774,-4 L 126.358,-4 L 126.358,-0 L 132.941,-0 L 132.941,-4 L 139.524,-4  L 139.524,-0 L 146.108,-0 L 146.108,-4 L 152.691,-4 L 152.691,-0 L 159.274,-0  L 159.274,-152 L 152.691,-152 L 152.691,-148 L 146.108,-148 L 146.108,-152 L 139.524,-152  L 139.524,-148 L 132.941,-148 L 132.941,-152 L 126.358,-152 L 126.358,-148 L 119.774,-148  L 119.774,-152 L 113.191,-152 L 113.191,-148 L 106.608,-148 L 106.608,-152 L 100.024,-152  L 100.024,-148 L 93.441,-148 L 93.441,-152 L 86.8577,-152 L 86.8577,-148 L 80.2743,-148  L 80.2743,-152 L 47.6667,-152 L 47.6667,-148 L 43.3333,-148 L 43.3333,-152 L 39,-152  L 39,-148 L 34.6667,-148 L 34.6667,-152 L 30.3333,-152 L 30.3333,-148 L 26,-148  L 26,-152 L 21.6667,-152 L 21.6667,-148 L 17.3333,-148 L 17.3333,-152 L 13,-152  L 13,-148 L 8.66667,-148 L 8.66667,-152 L 4.33333,-152 L 4.33333,-148 L 0,-148  z M 3.5,-12.8105 L 3.5,-13.1895 L 3.59425,-13.5566 L 3.77683,-13.8887 L 4.03627,-14.165 L 4.35626,-14.368  L 4.71669,-14.4851 L 5.09493,-14.5089 L 5.46721,-14.4379 L 5.81013,-14.2766 L 6.10214,-14.035 L 6.32491,-13.7284  L 6.46442,-13.376 L 6.51192,-13 L 6.46442,-12.624 L 6.32491,-12.2716 L 6.10214,-11.965 L 5.81013,-11.7234  L 5.46721,-11.5621 L 5.09493,-11.4911 L 4.71669,-11.5149 L 4.35626,-11.632 L 4.03627,-11.835 L 3.77683,-12.1113  L 3.59425,-12.4434 z M 3.5,-26.8105 L 3.5,-27.1895 L 3.59425,-27.5566 L 3.77683,-27.8887 L 4.03627,-28.165 L 4.35626,-28.368  L 4.71669,-28.4851 L 5.09493,-28.5089 L 5.46721,-28.4379 L 5.81013,-28.2766 L 6.10214,-28.035 L 6.32491,-27.7284  L 6.46442,-27.376 L 6.51192,-27 L 6.46442,-26.624 L 6.32491,-26.2716 L 6.10214,-25.965 L 5.81013,-25.7234  L 5.46721,-25.5621 L 5.09493,-25.4911 L 4.71669,-25.5149 L 4.35626,-25.632 L 4.03627,-25.835 L 3.77683,-26.1113  L 3.59425,-26.4434 z M 3.5,-68.8105 L 3.5,-69.1895 L 3.59425,-69.5566 L 3.77683,-69.8887 L 4.03627,-70.165 L 4.35626,-70.368  L 4.71669,-70.4851 L 5.09493,-70.5089 L 5.46721,-70.4379 L 5.81013,-70.2766 L 6.10214,-70.035 L 6.32491,-69.7284  L 6.46442,-69.376 L 6.51192,-69 L 6.46442,-68.624 L 6.32491,-68.2716 L 6.10214,-67.965 L 5.81013,-67.7234  L 5.46721,-67.5621 L 5.09493,-67.4911 L 4.71669,-67.5149 L 4.35626,-67.632 L 4.03627,-67.835 L 3.77683,-68.1113  L 3.59425,-68.4434 z M 3.5,-82.8105 L 3.5,-83.1895 L 3.59425,-83.5566 L 3.77683,-83.8887 L 4.03627,-84.165 L 4.35626,-84.368  L 4.71669,-84.4851 L 5.09493,-84.5089 L 5.46721,-84.4379 L 5.81013,-84.2766 L 6.10214,-84.035 L 6.32491,-83.7284  L 6.46442,-83.376 L 6.51192,-83 L 6.46442,-82.624 L 6.32491,-82.2716 L 6.10214,-81.965 L 5.81013,-81.7234  L 5.46721,-81.5621 L 5.09493,-81.4911 L 4.71669,-81.5149 L 4.35626,-81.632 L 4.03627,-81.835 L 3.77683,-82.1113  L 3.59425,-82.4434 z M 3.5,-124.811 L 3.5,-125.189 L 3.59425,-125.557 L 3.77683,-125.889 L 4.03627,-126.165 L 4.35626,-126.368  L 4.71669,-126.485 L 5.09493,-126.509 L 5.46721,-126.438 L 5.81013,-126.277 L 6.10214,-126.035 L 6.32491,-125.728  L 6.46442,-125.376 L 6.51192,-125 L 6.46442,-124.624 L 6.32491,-124.272 L 6.10214,-123.965 L 5.81013,-123.723  L 5.46721,-123.562 L 5.09493,-123.491 L 4.71669,-123.515 L 4.35626,-123.632 L 4.03627,-123.835 L 3.77683,-124.111  L 3.59425,-124.443 z M 3.5,-138.811 L 3.5,-139.189 L 3.59425,-139.557 L 3.77683,-139.889 L 4.03627,-140.165 L 4.35626,-140.368  L 4.71669,-140.485 L 5.09493,-140.509 L 5.46721,-140.438 L 5.81013,-140.277 L 6.10214,-140.035 L 6.32491,-139.728  L 6.46442,-139.376 L 6.51192,-139 L 6.46442,-138.624 L 6.32491,-138.272 L 6.10214,-137.965 L 5.81013,-137.723  L 5.46721,-137.562 L 5.09493,-137.491 L 4.71669,-137.515 L 4.35626,-137.632 L 4.03627,-137.835 L 3.77683,-138.111  L 3.59425,-138.443 z M 88.2743,-14.4 L 88.2743,-21.6 L 92.2743,-21.6 L 92.2743,-14.4 z M 88.2743,-28.8 L 88.2743,-36 L 92.2743,-36 L 92.2743,-28.8 z M 88.2743,-43.2 L 88.2743,-50.4 L 92.2743,-50.4 L 92.2743,-43.2 z M 88.2743,-57.6 L 88.2743,-64.8 L 92.2743,-64.8 L 92.2743,-57.6 z M 88.2743,-72 L 88.2743,-79.2 L 92.2743,-79.2 L 92.2743,-72 z M 88.2743,-86.4 L 88.2743,-93.6 L 92.2743,-93.6 L 92.2743,-86.4 z M 88.2743,-100.8 L 88.2743,-108 L 92.2743,-108 L 92.2743,-100.8 z M 88.2743,-115.2 L 88.2743,-122.4 L 92.2743,-122.4 L 92.2743,-115.2 z M 88.2743,-129.6 L 88.2743,-136.8 L 92.2743,-136.8 L 92.2743,-129.6 z M 144.894,-14.4 L 144.894,-21.6 L 148.894,-21.6 L 148.894,-14.4 z M 144.894,-28.8 L 144.894,-36 L 148.894,-36 L 148.894,-28.8 z M 144.894,-43.2 L 144.894,-50.4 L 148.894,-50.4 L 148.894,-43.2 z M 144.894,-57.6 L 144.894,-64.8 L 148.894,-64.8 L 148.894,-57.6 z M 144.894,-72 L 144.894,-79.2 L 148.894,-79.2 L 148.894,-72 z M 144.894,-86.4 L 144.894,-93.6 L 148.894,-93.6 L 148.894,-86.4 z M 144.894,-100.8 L 144.894,-108 L 148.894,-108 L 148.894,-100.8 z M 144.894,-115.2 L 144.894,-122.4 L 148.894,-122.4 L 148.894,-115.2 z M 144.894,-129.6 L 144.894,-136.8 L 148.894,-136.8 L 148.894,-129.6 z "
     stroke="black"
     fill="lightgray"
     stroke-width="0.5"
     id="path1" /><path
     d="M 49.906799,0.32588311 V -20.99519 m 0,-4.083323 v -38.557798 m 0,-4.083323 v -38.558836 m 0,-4.08332 v -38.5578 m 1.999852,-4.08333 v 21.32108 m 0,4.08333 v 38.557802 m 0,4.083324 v 38.558812 m 0,4.083325 V -3.75744 m 1.999852,4.08332311 V -20.99519 m 0,-4.083323 v -38.557798 m 0,-4.083323 v -38.558836 m 0,-4.08332 v -38.5578 m 1.999853,-4.08333 v 21.32108 m 0,4.08333 v 38.557802 m 0,4.083324 v 38.558812 m 0,4.083325 V -3.75744 m 1.999853,4.08332311 V -20.99519 m 0,-4.083323 v -38.557798 m 0,-4.083323 v -38.558836 m 0,-4.08332 v -38.5578 m 1.999852,-4.08333 v 21.32108 m 0,4.08333 v 38.557802 m 0,4.083324 v 38.558812 m 0,4.083325 V -3.75744 m 1.999853,4.08332311 V -20.99519 m 0,-4.083323 v -38.557798 m 0,-4.083323 v -38.558836 m 0,-4.08332 v -38.5578 m 1.999852,-4.08333 v 21.32108 m 0,4.08333 v 38.557802 m 0,4.083324 v 38.558812 m 0,4.083325 V -3.75744 m 1.999852,4.08332311 V -20.99519 m 0,-4.083323 v -38.557798 m 0,-4.083323 v -38.558836 m 0,-4.08332 v -38.5578 m 1.999853,-4.08333 v 21.32108 m 0,4.08333 v 38.557802 m 0,4.083324 v 38.558812 m 0,4.083325 V -3.75744 m 1.999852,4.08332311 V -20.99519 m 0,-4.083323 v -38.557798 m 0,-4.083323 v -38.558836 m 0,-4.08332 v -38.5578 m 1.999853,-4.08333 v 21.32108 m 0,4.08333 v 38.557802 m 0,4.083324 v 38.558812 m 0,4.083325 V -3.75744 m 1.999853,4.08332311 V -20.99519 m 0,-4.083323 v -38.557798 m 0,-4.083323 v -38.558836 m 0,-4.08332 v -38.5578 m 1.999852,-4.08333 v 21.32108 m 0,4.08333 v 38.557802 m 0,4.083324 v 38.558812 m 0,4.083325 V -3.75744 m 1.999852,4.08332311 V -20.99519 m 0,-4.083323 v -38.557798 m 0,-4.083323 v -38.558836 m 0,-4.08332 v -38.5578"
     stroke="#000000"
     stroke-width="0.202065"
     id="path850"
     style="fill:#0000ff;stroke:#e25c5c;stroke-linecap:round;stroke-linejoin:round;stroke-opacity:1"
     sodipodi:nodetypes="cccccccccccccccccccccccccccccccccccccccccccccccccccccccccccccccccccccccccccccccccccccccccccccccccccccccccccccccccccccccc" /></svg>
