<?xml version="1.0" standalone="no"?>
<!DOCTYPE svg PUBLIC "-//W3C//DTD SVG 1.1//EN" "http://www.w3.org/Graphics/SVG/1.1/DTD/svg11.dtd">
<svg width="76mm" height="106mm" viewBox="0 0 76 106" xmlns="http://www.w3.org/2000/svg" version="1.1">
<title>OpenSCAD Model</title>
<path d="
M 0,63.9422 L 71.3333,103.451 L 71.3333,98.8056 L 75.3333,98.8056 L 75.3333,91.9444 L 71.3333,91.9444
 L 71.3333,85.0833 L 75.3333,85.0833 L 75.3333,78.2222 L 71.3333,78.2222 L 71.3333,71.3611 L 75.3333,71.3611
 L 75.3333,64.5 L 71.3333,64.5 L 71.3333,57.6389 L 75.3333,57.6389 L 75.3333,50.7778 L 71.3333,50.7778
 L 71.3333,43.9167 L 75.3333,43.9167 L 75.3333,37.0556 L 71.3333,37.0556 L 71.3333,30.1944 L 75.3333,30.1944
 L 75.3333,23.3333 L 71.3333,23.3333 L 70.9109,19.3137 L 69.6619,15.4698 L 67.641,11.9695 L 64.9365,8.96587
 L 61.6667,6.59018 L 57.9743,4.94624 L 54.0209,4.10591 L 52,4.10591 L 52,4 L 47.6667,4
 L 47.6667,-0 L 43.3333,-0 L 43.3333,4 L 39,4 L 39,-0 L 34.6667,-0
 L 34.6667,4 L 30.3333,4 L 30.3333,-0 L 26,-0 L 26,4 L 21.6667,4
 L 21.6667,-0 L 17.3333,-0 L 17.3333,4 L 13,4 L 13,-0 L 8.66667,-0
 L 8.66667,4 L 4.33333,4 L 4.33333,-0 L 0,-0 z
M 6.26667,54 L 6.26667,48 L 10.2667,48 L 10.2667,54 z
M 6.26667,34 L 6.26667,28 L 10.2667,28 L 10.2667,34 z
M 55.2667,54 L 55.2667,48 L 59.2667,48 L 59.2667,54 z
M 55.2667,34 L 55.2667,28 L 59.2667,28 L 59.2667,34 z
M 63.3333,95.0203 L 63.3333,91.0203 L 67.3333,91.0203 L 67.3333,95.0203 z
M 63.3333,35.3333 L 63.3333,31.3333 L 67.3333,31.3333 L 67.3333,35.3333 z
M 75.3333,105.667 L 75.3333,105.667 L 75.3333,105.667 z
" stroke="black" fill="lightgray" stroke-width="0.5"/>
</svg>
