<?xml version="1.0" standalone="no"?>
<!DOCTYPE svg PUBLIC "-//W3C//DTD SVG 1.1//EN" "http://www.w3.org/Graphics/SVG/1.1/DTD/svg11.dtd">
<svg width="74mm" height="101mm" viewBox="0 0 74 101" xmlns="http://www.w3.org/2000/svg" version="1.1">
<title>OpenSCAD Model</title>
<path d="
M 0,61.6558 L 70,98.8733 L 70,94.4167 L 74,94.4167 L 74,87.8333 L 70,87.8333
 L 70,81.25 L 74,81.25 L 74,74.6667 L 70,74.6667 L 70,68.0833 L 74,68.0833
 L 74,61.5 L 70,61.5 L 70,54.9167 L 74,54.9167 L 74,48.3333 L 70,48.3333
 L 70,41.75 L 74,41.75 L 74,35.1667 L 70,35.1667 L 70,28.5833 L 74,28.5833
 L 74,22 L 70,22 L 69.6067,18.2576 L 68.4438,14.6787 L 66.5623,11.4199 L 64.0444,8.62339
 L 61,6.41154 L 57.5623,4.88098 L 53.8815,4.09861 L 52,4.09861 L 52,4 L 47.6667,4
 L 47.6667,-0 L 43.3333,-0 L 43.3333,4 L 39,4 L 39,-0 L 34.6667,-0
 L 34.6667,4 L 30.3333,4 L 30.3333,-0 L 26,-0 L 26,4 L 21.6667,4
 L 21.6667,-0 L 17.3333,-0 L 17.3333,4 L 13,4 L 13,-0 L 8.66667,-0
 L 8.66667,4 L 4.33333,4 L 4.33333,-0 L 0,-0 z
M 5.2,52 L 5.2,46 L 9.2,46 L 9.2,52 z
M 5.2,32 L 5.2,26 L 9.2,26 L 9.2,32 z
M 54.2,52 L 54.2,46 L 58.2,46 L 58.2,52 z
M 54.2,32 L 54.2,26 L 58.2,26 L 58.2,32 z
M 62,90.6199 L 62,86.6199 L 66,86.6199 L 66,90.6199 z
M 62,34 L 62,30 L 66,30 L 66,34 z
M 74,101 L 74,101 L 74,101 z
" stroke="black" fill="lightgray" stroke-width="0.5"/>
</svg>
