<?xml version="1.0" standalone="no"?>
<!DOCTYPE svg PUBLIC "-//W3C//DTD SVG 1.1//EN" "http://www.w3.org/Graphics/SVG/1.1/DTD/svg11.dtd">
<svg width="12mm" height="152mm" viewBox="0 -152 12 152" xmlns="http://www.w3.org/2000/svg" version="1.1">
<title>OpenSCAD Model</title>
<path d="
M 0,-0 L 4,-0 L 4,-4 L 8,-4 L 8,-14.8 L 12,-14.8
 L 12,-22 L 8,-22 L 8,-29.2 L 12,-29.2 L 12,-36.4 L 8,-36.4
 L 8,-43.6 L 12,-43.6 L 12,-50.8 L 8,-50.8 L 8,-58 L 12,-58
 L 12,-65.2 L 8,-65.2 L 8,-72.4 L 12,-72.4 L 12,-79.6 L 8,-79.6
 L 8,-86.8 L 12,-86.8 L 12,-94 L 8,-94 L 8,-101.2 L 12,-101.2
 L 12,-108.4 L 8,-108.4 L 8,-115.6 L 12,-115.6 L 12,-122.8 L 8,-122.8
 L 8,-130 L 12,-130 L 12,-137.2 L 8,-137.2 L 8,-148 L 4,-148
 L 4,-152 L 0,-152 z
" stroke="black" fill="lightgray" stroke-width="0.5"/>
</svg>
