<?xml version="1.0" standalone="no"?>
<!DOCTYPE svg PUBLIC "-//W3C//DTD SVG 1.1//EN" "http://www.w3.org/Graphics/SVG/1.1/DTD/svg11.dtd">
<svg width="16mm" height="157mm" viewBox="0 -157 16 157" xmlns="http://www.w3.org/2000/svg" version="1.1">
<title>OpenSCAD Model</title>
<path d="
M 0,-0 L 4,-0 L 4,-4 L 12,-4 L 12,-0 L 16,-0
 L 16,-157 L 12,-157 L 12,-153 L 4,-153 L 4,-157 L 0,-157
 z
M 8,-7.725 L 8,-15.175 L 12,-15.175 L 12,-7.725 z
M 8,-22.625 L 8,-30.075 L 12,-30.075 L 12,-22.625 z
M 8,-37.525 L 8,-44.975 L 12,-44.975 L 12,-37.525 z
M 8,-52.425 L 8,-59.875 L 12,-59.875 L 12,-52.425 z
M 8,-67.325 L 8,-74.775 L 12,-74.775 L 12,-67.325 z
M 8,-82.225 L 8,-89.675 L 12,-89.675 L 12,-82.225 z
M 8,-97.125 L 8,-104.575 L 12,-104.575 L 12,-97.125 z
M 8,-112.025 L 8,-119.475 L 12,-119.475 L 12,-112.025 z
M 8,-126.925 L 8,-134.375 L 12,-134.375 L 12,-126.925 z
M 8,-141.825 L 8,-149.275 L 12,-149.275 L 12,-141.825 z
" stroke="black" fill="lightgray" stroke-width="0.5"/>
</svg>
