<?xml version="1.0" standalone="no"?>
<!DOCTYPE svg PUBLIC "-//W3C//DTD SVG 1.1//EN" "http://www.w3.org/Graphics/SVG/1.1/DTD/svg11.dtd">
<svg width="70mm" height="62mm" viewBox="0 0 70 62" xmlns="http://www.w3.org/2000/svg" version="1.1">
<title>OpenSCAD Model</title>
<path d="
M 0,61.3442 L 70,24.1267 L 70,22 L 69.6067,18.2576 L 68.4438,14.6787 L 66.5623,11.4199
 L 64.0444,8.62339 L 61,6.41154 L 57.5623,4.88098 L 53.8815,4.09861 L 52,4.09861 L 52,4
 L 47.6667,4 L 47.6667,-0 L 43.3333,-0 L 43.3333,4 L 39,4 L 39,-0
 L 34.6667,-0 L 34.6667,4 L 30.3333,4 L 30.3333,-0 L 26,-0 L 26,4
 L 21.6667,4 L 21.6667,-0 L 17.3333,-0 L 17.3333,4 L 13,4 L 13,-0
 L 8.66667,-0 L 8.66667,4 L 4.33333,4 L 4.33333,-0 L 0,-0 z
M 62,22 L 62,18 L 66,18 L 66,22 z
" stroke="black" fill="lightgray" stroke-width="0.5"/>
</svg>
