<?xml version="1.0" standalone="no"?>
<!DOCTYPE svg PUBLIC "-//W3C//DTD SVG 1.1//EN" "http://www.w3.org/Graphics/SVG/1.1/DTD/svg11.dtd">
<svg width="72mm" height="66mm" viewBox="0 0 72 66" xmlns="http://www.w3.org/2000/svg" version="1.1">
<title>OpenSCAD Model</title>
<path d="
M 0,65.0578 L 71.3333,25.5488 L 71.3333,23.3333 L 71.3333,23.3333 L 70.9109,19.3137 L 69.6619,15.4698
 L 67.641,11.9695 L 64.9365,8.96587 L 61.6667,6.59018 L 57.9743,4.94624 L 54.0209,4.10591 L 52,4.10591
 L 52,4 L 47.6667,4 L 47.6667,-0 L 43.3333,-0 L 43.3333,4 L 39,4
 L 39,-0 L 34.6667,-0 L 34.6667,4 L 30.3333,4 L 30.3333,-0 L 26,-0
 L 26,4 L 21.6667,4 L 21.6667,-0 L 17.3333,-0 L 17.3333,4 L 13,4
 L 13,-0 L 8.66667,-0 L 8.66667,4 L 4.33333,4 L 4.33333,-0 L 0,-0
 z
M 63.3333,23.3333 L 63.3333,19.3333 L 67.3333,19.3333 L 67.3333,23.3333 z
" stroke="black" fill="lightgray" stroke-width="0.5"/>
</svg>
