<?xml version="1.0" standalone="no"?>
<!DOCTYPE svg PUBLIC "-//W3C//DTD SVG 1.1//EN" "http://www.w3.org/Graphics/SVG/1.1/DTD/svg11.dtd">
<svg width="13mm" height="28mm" viewBox="0 -28 13 28" xmlns="http://www.w3.org/2000/svg" version="1.1">
<title>OpenSCAD Model</title>
<path d="
M 0,-1 L 0.0340729,-0.74118 L 0.133972,-0.5 L 0.292892,-0.292892 L 0.5,-0.133972 L 0.74118,-0.0340729
 L 1,-0 L 4.58578,-0 L 4.8446,-0.0340729 L 5.08578,-0.133972 L 5.29289,-0.292892 L 12.7071,-7.70711
 L 12.866,-7.91422 L 12.9659,-8.1554 L 13,-8.41422 L 13,-19.5858 L 12.9659,-19.8446 L 12.866,-20.0858
 L 12.7071,-20.2929 L 5.29289,-27.7071 L 5.08578,-27.866 L 4.8446,-27.9659 L 4.58578,-28 L 1,-28
 L 0.74118,-27.9659 L 0.5,-27.866 L 0.292892,-27.7071 L 0.133972,-27.5 L 0.0340729,-27.2588 L 0,-27
 L 0,-21 L 0.0340729,-20.7412 L 0.133972,-20.5 L 0.292892,-20.2929 L 0.5,-20.134 L 0.74118,-20.0341
 L 1,-20 L 8.93449,-20 L 8.99239,-19.9924 L 9,-19.9345 L 9,-8.06551 L 8.99239,-8.00761
 L 8.93449,-8 L 1,-8 L 0.74118,-7.96593 L 0.5,-7.86603 L 0.292892,-7.70711 L 0.133972,-7.5
 L 0.0340729,-7.25882 L 0,-7 z
" stroke="black" fill="lightgray" stroke-width="0.5"/>
</svg>
