<?xml version="1.0" standalone="no"?>
<!DOCTYPE svg PUBLIC "-//W3C//DTD SVG 1.1//EN" "http://www.w3.org/Graphics/SVG/1.1/DTD/svg11.dtd">
<svg width="193mm" height="144mm" viewBox="-82 -140 193 144" xmlns="http://www.w3.org/2000/svg" version="1.1">
<title>OpenSCAD Model</title>
<path d="
M -81.3784,-0 L -61.3784,-0 L -61.3784,4 L -51.3784,4 L -51.3784,-0 L -30,-0
 L -30,4 L -20,4 L -20,-0 L -4.6395e-07,-0 L -4.6395e-07,-52 L -40.6892,-52
 L -40.6892,-56 L -4.6395e-07,-56 L -4.6395e-07,-108 L -40.6892,-108 L -40.6892,-112 L -4.6395e-07,-112
 L -4.6395e-07,-136 L -20,-136 L -20,-140 L -30,-140 L -30,-136 L -51.3784,-136
 L -51.3784,-140 L -61.3784,-140 L -61.3784,-136 L -81.3784,-136 L -81.3784,-84 L -40.6892,-84
 L -40.6892,-80 L -81.3784,-80 L -81.3784,-28 L -40.6892,-28 L -40.6892,-24 L -81.3784,-24
 z
M 44,-0 L 64,-0 L 64,4 L 74,4 L 74,-0 L 80.3784,-0
 L 80.3784,4 L 90.3784,4 L 90.3784,-0 L 110.378,-0 L 110.378,-52 L 77.1892,-52
 L 77.1892,-56 L 110.378,-56 L 110.378,-108 L 77.1892,-108 L 77.1892,-112 L 110.378,-112
 L 110.378,-136 L 90.3784,-136 L 90.3784,-140 L 80.3784,-140 L 80.3784,-136 L 74,-136
 L 74,-140 L 64,-140 L 64,-136 L 44,-136 L 44,-84 L 77.1892,-84
 L 77.1892,-80 L 44,-80 L 44,-28 L 77.1892,-28 L 77.1892,-24 L 44,-24
 z
" stroke="black" fill="lightgray" stroke-width="0.5"/>
</svg>
