<?xml version="1.0" standalone="no"?>
<!DOCTYPE svg PUBLIC "-//W3C//DTD SVG 1.1//EN" "http://www.w3.org/Graphics/SVG/1.1/DTD/svg11.dtd">
<svg width="68mm" height="144mm" viewBox="43 -140 68 144" xmlns="http://www.w3.org/2000/svg" version="1.1">
<title>OpenSCAD Model</title>
<path d="
M 44,-0 L 64,-0 L 64,4 L 74,4 L 74,-0 L 80.3784,-0
 L 80.3784,4 L 90.3784,4 L 90.3784,-0 L 110.378,-0 L 110.378,-52 L 77.1892,-52
 L 77.1892,-56 L 110.378,-56 L 110.378,-108 L 77.1892,-108 L 77.1892,-112 L 110.378,-112
 L 110.378,-136 L 90.3784,-136 L 90.3784,-140 L 80.3784,-140 L 80.3784,-136 L 74,-136
 L 74,-140 L 64,-140 L 64,-136 L 44,-136 L 44,-84 L 77.1892,-84
 L 77.1892,-80 L 44,-80 L 44,-28 L 77.1892,-28 L 77.1892,-24 L 44,-24
 z
" stroke="black" fill="lightgray" stroke-width="0.5"/>
</svg>
