<?xml version="1.0" standalone="no"?>
<!DOCTYPE svg PUBLIC "-//W3C//DTD SVG 1.1//EN" "http://www.w3.org/Graphics/SVG/1.1/DTD/svg11.dtd">
<svg width="195mm" height="149mm" viewBox="-82 -145 195 149" xmlns="http://www.w3.org/2000/svg" version="1.1">
<title>OpenSCAD Model</title>
<path d="
M -81.4615,-0 L -61.4615,-0 L -61.4615,4 L -51.4615,4 L -51.4615,-0 L -30,-0
 L -30,4 L -20,4 L -20,-0 L -1.46719e-07,-0 L -1.46719e-07,-54 L -40.7308,-54
 L -40.7308,-58 L -1.46719e-07,-58 L -1.46719e-07,-112 L -40.7308,-112 L -40.7308,-116 L -1.46719e-07,-116
 L -1.46719e-07,-141 L -20,-141 L -20,-145 L -30,-145 L -30,-141 L -51.4615,-141
 L -51.4615,-145 L -61.4615,-145 L -61.4615,-141 L -81.4615,-141 L -81.4615,-87 L -40.7308,-87
 L -40.7308,-83 L -81.4615,-83 L -81.4615,-29 L -40.7308,-29 L -40.7308,-25 L -81.4615,-25
 z
M 46,-0 L 66,-0 L 66,4 L 76,4 L 76,-0 L 82.4615,-0
 L 82.4615,4 L 92.4615,4 L 92.4615,-0 L 112.462,-0 L 112.462,-54 L 79.2308,-54
 L 79.2308,-58 L 112.462,-58 L 112.462,-112 L 79.2308,-112 L 79.2308,-116 L 112.462,-116
 L 112.462,-141 L 92.4615,-141 L 92.4615,-145 L 82.4615,-145 L 82.4615,-141 L 76,-141
 L 76,-145 L 66,-145 L 66,-141 L 46,-141 L 46,-87 L 79.2308,-87
 L 79.2308,-83 L 46,-83 L 46,-29 L 79.2308,-29 L 79.2308,-25 L 46,-25
 z
" stroke="black" fill="lightgray" stroke-width="0.5"/>
</svg>
