<?xml version="1.0" standalone="no"?>
<!DOCTYPE svg PUBLIC "-//W3C//DTD SVG 1.1//EN" "http://www.w3.org/Graphics/SVG/1.1/DTD/svg11.dtd">
<svg width="82mm" height="149mm" viewBox="-82 -145 82 149" xmlns="http://www.w3.org/2000/svg" version="1.1">
<title>OpenSCAD Model</title>
<path d="
M -81.4615,-0 L -61.4615,-0 L -61.4615,4 L -51.4615,4 L -51.4615,-0 L -30,-0
 L -30,4 L -20,4 L -20,-0 L -1.46719e-07,-0 L -1.46719e-07,-54 L -40.7308,-54
 L -40.7308,-58 L -1.46719e-07,-58 L -1.46719e-07,-112 L -40.7308,-112 L -40.7308,-116 L -1.46719e-07,-116
 L -1.46719e-07,-141 L -20,-141 L -20,-145 L -30,-145 L -30,-141 L -51.4615,-141
 L -51.4615,-145 L -61.4615,-145 L -61.4615,-141 L -81.4615,-141 L -81.4615,-87 L -40.7308,-87
 L -40.7308,-83 L -81.4615,-83 L -81.4615,-29 L -40.7308,-29 L -40.7308,-25 L -81.4615,-25
 z
" stroke="black" fill="lightgray" stroke-width="0.5"/>
</svg>
